<svg version="1.1" xmlns="http://www.w3.org/2000/svg" xmlns:xlink="http://www.w3.org/1999/xlink" width="256.000000pt" height="256.000000pt" viewBox="0,0,256,256"><g fill="#ffffff" fill-rule="nonzero" stroke="none" stroke-width="1" stroke-linecap="butt" stroke-linejoin="miter" stroke-miterlimit="10" stroke-dasharray="" stroke-dashoffset="0" font-family="none" font-weight="none" font-size="none" text-anchor="none" style="mix-blend-mode: normal"><g transform="translate(-0.0375,-0.11092)"><g transform="translate(0,256) scale(0.1,-0.1)"><path d="M1180,1881c-172,-53 -226,-245 -103,-368c23,-23 53,-45 67,-49l24,-6l-20,-34l-20,-35l-110,3l-110,3l-18,46l-17,46l35,19c20,10 48,37 64,58c23,32 28,49 28,98c0,65 -14,99 -57,140c-52,49 -130,62 -200,33c-48,-20 -71,-41 -94,-87c-50,-98 8,-234 110,-254c25,-5 33,-14 45,-52c9,-25 16,-47 16,-49c0,-2 -34,-3 -75,-3c-73,0 -76,-1 -86,-27c-7,-18 -7,-35 -1,-48c6,-13 6,-28 0,-38c-5,-10 -8,-133 -6,-292c3,-248 5,-276 21,-292c16,-17 48,-18 377,-21l360,-3l25,25c22,22 25,34 25,90c0,51 3,64 13,60c8,-3 20,2 27,11c19,23 36,20 202,-40c84,-30 160,-55 169,-55c8,0 25,10 37,23c21,22 22,32 22,228c0,193 -1,207 -20,227c-12,12 -29,22 -38,22c-10,0 -85,-22 -167,-50c-166,-56 -191,-59 -200,-30c-3,11 -15,20 -26,20c-20,0 -25,32 -19,123c3,61 -8,67 -126,67h-105l15,28c10,20 27,31 60,40c85,22 156,118 156,208c0,61 -22,109 -69,155c-62,59 -139,81 -211,60z"></path></g></g></g></svg>